<svg xmlns="http://www.w3.org/2000/svg" viewBox="0 0 80 80"><defs><style>.cls-1{fill:#fff;}.cls-2{fill:#464646;}.cls-3,.cls-4,.cls-5,.cls-6,.cls-8,.cls-9{fill:none;stroke-miterlimit:10;}.cls-3{stroke:#9b9b9b;}.cls-3,.cls-4,.cls-5,.cls-8,.cls-9{stroke-linecap:round;}.cls-4{stroke:#464646;}.cls-5{stroke:#0db22a;}.cls-6{stroke:#ededed;}.cls-7{fill:#ededed;}.cls-8{stroke:#e1443d;}.cls-9{stroke:#ffc957;}.cls-10{fill:#eaeaea;}</style></defs><title>icon__my-orders</title><g id="Layer_2" data-name="Layer 2"><rect class="cls-1" x="10" y="18.41" width="60" height="43"/><path class="cls-2" d="M69,19.41v41H11v-41H69m2-2H9v45H71v-45Z"/><line class="cls-3" x1="51.5" y1="26.91" x2="54.5" y2="26.91"/><line class="cls-4" x1="13.5" y1="26.91" x2="23.5" y2="26.91"/><line class="cls-5" x1="61.5" y1="26.91" x2="66.5" y2="26.91"/><line class="cls-6" x1="11" y1="30.91" x2="69" y2="30.91"/><rect class="cls-7" x="11" y="19.41" width="58" height="4"/><line class="cls-3" x1="45.5" y1="26.91" x2="48.5" y2="26.91"/><line class="cls-3" x1="39.5" y1="26.91" x2="42.5" y2="26.91"/><line class="cls-3" x1="51.5" y1="34.91" x2="54.5" y2="34.91"/><line class="cls-4" x1="13.5" y1="34.91" x2="23.5" y2="34.91"/><line class="cls-8" x1="61.5" y1="34.91" x2="66.5" y2="34.91"/><line class="cls-6" x1="11" y1="38.91" x2="69" y2="38.91"/><line class="cls-3" x1="45.5" y1="34.91" x2="48.5" y2="34.91"/><line class="cls-3" x1="39.5" y1="34.91" x2="42.5" y2="34.91"/><line class="cls-3" x1="51.5" y1="42.91" x2="54.5" y2="42.91"/><line class="cls-4" x1="13.5" y1="42.91" x2="23.5" y2="42.91"/><line class="cls-9" x1="61.5" y1="42.91" x2="66.5" y2="42.91"/><line class="cls-6" x1="11" y1="46.91" x2="69" y2="46.91"/><line class="cls-3" x1="45.5" y1="42.91" x2="48.5" y2="42.91"/><line class="cls-3" x1="39.5" y1="42.91" x2="42.5" y2="42.91"/><line class="cls-3" x1="51.5" y1="50.91" x2="54.5" y2="50.91"/><line class="cls-4" x1="13.5" y1="50.91" x2="23.5" y2="50.91"/><line class="cls-5" x1="61.5" y1="50.91" x2="66.5" y2="50.91"/><line class="cls-6" x1="11" y1="54.91" x2="69" y2="54.91"/><line class="cls-3" x1="45.5" y1="50.91" x2="48.5" y2="50.91"/><line class="cls-3" x1="39.5" y1="50.91" x2="42.5" y2="50.91"/><path class="cls-10" d="M71.11,64.41H8.89a1,1,0,0,1,0-2H71.11a1,1,0,0,1,0,2Z"/></g></svg>