<svg xmlns="http://www.w3.org/2000/svg" viewBox="0 0 80 80"><defs><style>.cls-1{fill:#eaeaea;}.cls-2{fill:#c9a571;}.cls-3{fill:#464646;}.cls-4{fill:#fff;}.cls-5{fill:#0db22a;}.cls-6{fill:#e8c58b;}</style></defs><title>icon__submit-ticket--success</title><g id="Layer_2" data-name="Layer 2"><path class="cls-1" d="M62.93,73.41H18.07a1,1,0,1,1,0-2H62.93a1,1,0,1,1,0,2Z"/><polygon class="cls-2" points="62 70.41 19 70.41 19 43.41 26 31.41 55 31.41 62 43.41 62 70.41"/><polygon class="cls-3" points="53 35.41 28 35.41 27 38.41 54 38.41 53 35.41"/><circle class="cls-4" cx="40.5" cy="14.91" r="8.5"/><path class="cls-5" d="M40.5,6.41a8.5,8.5,0,1,1-8.5,8.5,8.5,8.5,0,0,1,8.5-8.5m0-2A10.5,10.5,0,1,0,51,14.91,10.51,10.51,0,0,0,40.5,4.41Z"/><rect class="cls-6" x="20" y="43.71" width="41" height="25.69"/><path class="cls-3" d="M62.86,42.9l-7-12-.29-.49H25.43l-.29.49-7,12-.14.23V71.41H63V43.13ZM61,69.41H20V43.68l6.57-11.27H54.43L61,43.68Z"/><polyline class="cls-4" points="36 16.41 39 18.41 45 11.4"/><path class="cls-5" d="M39,19.41a1,1,0,0,1-.55-.17l-3-2a1,1,0,0,1,1.1-1.67l2.27,1.51,5.42-6.33a1,1,0,0,1,1.52,1.31l-6,7A1,1,0,0,1,39,19.41Z"/></g></svg>