<svg xmlns="http://www.w3.org/2000/svg" viewBox="0 0 80 80"><defs><style>.cls-1{fill:#e8c58b;}.cls-2{fill:#464646;}.cls-3,.cls-4,.cls-6{fill:#fff;}.cls-4,.cls-6,.cls-7{stroke:#e1443d;}.cls-4,.cls-5,.cls-6{stroke-miterlimit:10;}.cls-5,.cls-7{fill:none;}.cls-5{stroke:#298ee9;}.cls-5,.cls-6,.cls-7{stroke-linecap:round;}.cls-6,.cls-7{fill-rule:evenodd;}.cls-7{stroke-linejoin:round;}.cls-8{fill:#ededed;}.cls-9{fill:#eaeaea;}</style></defs><title>icon__sales-strategy</title><g id="Layer_2" data-name="Layer 2"><rect class="cls-1" x="9.5" y="18.91" width="61" height="44"/><path class="cls-2" d="M70,19.41v43H10v-43H70m1-1H9v45H71v-45Z"/><rect class="cls-3" x="12.5" y="21.91" width="55" height="38"/><path class="cls-2" d="M67,22.41v37H13v-37H67m1-1H12v39H68v-39Z"/><circle class="cls-4" cx="20.25" cy="52.66" r="2.25"/><line class="cls-5" x1="35.5" y1="30.91" x2="39.5" y2="34.91"/><line class="cls-5" x1="35.5" y1="34.91" x2="39.5" y2="30.91"/><line class="cls-5" x1="20.5" y1="30.91" x2="24.5" y2="34.91"/><line class="cls-5" x1="20.5" y1="34.91" x2="24.5" y2="30.91"/><circle class="cls-4" cx="54.25" cy="45.66" r="2.25"/><path class="cls-6" d="M58.5,29.91a27.3,27.3,0,0,1-23,10c-15-1-15,10-15,10"/><line class="cls-5" x1="35.5" y1="46.91" x2="39.5" y2="50.91"/><line class="cls-5" x1="35.5" y1="50.91" x2="39.5" y2="46.91"/><polyline class="cls-7" points="54.5 29.91 58.5 29.91 58.5 33.91"/><rect class="cls-8" x="7.5" y="33.91" width="6" height="14" rx="1.5" ry="1.5"/><path class="cls-2" d="M12,34.41a1,1,0,0,1,1,1v11a1,1,0,0,1-1,1H9a1,1,0,0,1-1-1v-11a1,1,0,0,1,1-1h3m0-1H9a2,2,0,0,0-2,2v11a2,2,0,0,0,2,2h3a2,2,0,0,0,2-2v-11a2,2,0,0,0-2-2Z"/><path class="cls-2" d="M71,18.41v45H9v-15a2,2,0,0,1-2-2v-11a2,2,0,0,1,2-2v-15H71m1-1H8V32.58a3,3,0,0,0-2,2.83v11a3,3,0,0,0,2,2.82V64.41H72v-47Z"/><rect class="cls-9" x="7" y="64.41" width="66" height="2" rx="1" ry="1"/></g></svg>