<svg xmlns="http://www.w3.org/2000/svg" viewBox="0 0 80 80"><defs><style>.cls-1{fill:#ededed;}.cls-2{fill:#464646;}.cls-3,.cls-6{fill:none;stroke-linecap:round;stroke-miterlimit:10;}.cls-3{stroke:#e1443d;}.cls-4{fill:#fff;}.cls-5{fill:#298ee9;}.cls-6{stroke:#298ee9;}</style></defs><title>icon__chat</title><g id="Layer_2" data-name="Layer 2"><path class="cls-1" d="M51.5,66.41c-9.65,0-17.5-6.73-17.5-15s7.85-15,17.5-15S69,43.13,69,51.41A13.54,13.54,0,0,1,65.83,60c.2.39.62,1,.9,1.48,1.1,1.72,1.82,2.86.93,3.65a1.29,1.29,0,0,1-.84.3,8.07,8.07,0,0,1-2.94-1.15,19.12,19.12,0,0,0-1.9-.89A19.34,19.34,0,0,1,51.5,66.41Z"/><path class="cls-2" d="M51.5,37.41c9.11,0,16.5,6.26,16.5,14a12.54,12.54,0,0,1-3.24,8.32c-.42.49,2.73,4.24,2.24,4.68a.3.3,0,0,1-.18,0c-.9,0-4.07-2.08-5-2.08a.39.39,0,0,0-.17,0,18.35,18.35,0,0,1-10.18,3c-9.11,0-16.5-6.27-16.5-14s7.39-14,16.5-14m0-2c-10.2,0-18.5,7.17-18.5,16s8.3,16,18.5,16a20.37,20.37,0,0,0,10.58-2.87c.41.19,1,.47,1.34.66a8.38,8.38,0,0,0,3.4,1.26,2.18,2.18,0,0,0,1.5-.56c1.53-1.35.42-3.09-.75-4.93-.16-.24-.36-.56-.54-.86a14.3,14.3,0,0,0,3-8.7c0-8.83-8.3-16-18.5-16Z"/><line class="cls-3" x1="44.5" y1="50.91" x2="58.5" y2="50.91"/><line class="cls-3" x1="51.5" y1="53.91" x2="58.5" y2="53.91"/><path class="cls-4" d="M58,34.62c0,7.57-8.62,13.71-19.25,13.71a25,25,0,0,1-10.64-2.28c-1-.48-5.41,2.89-6.28,2.28-.65-.46,2.18-4.86,1.63-5.38a11.38,11.38,0,0,1-4-8.33c0-7.58,8.62-13.71,19.25-13.71S58,27,58,34.62Z"/><path class="cls-4" d="M24.74,46a1.36,1.36,0,0,1-.88-.31c-.84-.69-.37-1.91.4-3.93a17,17,0,0,0,.66-1.92,13.48,13.48,0,0,1-3.42-8.91c0-8.28,7.85-15,17.5-15s17.5,6.72,17.5,15-7.85,15-17.5,15a19.62,19.62,0,0,1-9.42-2.36,13.73,13.73,0,0,0-1.87,1.06c-1.34.85-2.21,1.37-3,1.37Z"/><path class="cls-2" d="M39,16.91c9.11,0,16.5,6.26,16.5,14s-7.39,14-16.5,14a18.6,18.6,0,0,1-9.12-2.33.36.36,0,0,0-.21,0c-1.05,0-3.9,2.45-4.93,2.45a.36.36,0,0,1-.24-.07c-.56-.47,1.87-5,1.39-5.5a12.64,12.64,0,0,1-3.39-8.5c0-7.74,7.39-14,16.5-14m0-2c-10.2,0-18.5,7.17-18.5,16a14.39,14.39,0,0,0,3.32,9.15c-.14.41-.35.95-.49,1.33-.84,2.18-1.5,3.9-.11,5a2.35,2.35,0,0,0,1.52.54c1,0,2-.58,3.51-1.52.37-.24.91-.58,1.3-.79A20.79,20.79,0,0,0,39,46.91c10.2,0,18.5-7.18,18.5-16s-8.3-16-18.5-16Z"/><path class="cls-5" d="M47.27,32.73l.9.21.2-.9-.89-.2ZM49,27.47a1.85,1.85,0,0,0-2.2,1.38l.89.21a.93.93,0,0,1,1.1-.69.92.92,0,0,1,.69,1.1c-.2.89-1.52.47-1.85,1.92l.89.21c.23-1,1.6-.81,1.85-1.93A1.83,1.83,0,0,0,49,27.47Z"/><line class="cls-6" x1="30" y1="28.41" x2="44" y2="28.41"/><line class="cls-6" x1="30" y1="31.41" x2="37" y2="31.41"/></g></svg>