<svg xmlns="http://www.w3.org/2000/svg" viewBox="0 0 80 80"><defs><style>.cls-1{isolation:isolate;}.cls-2{fill:#eaeaea;}.cls-3{fill:#c9a571;}.cls-4{fill:#464646;}.cls-5{fill:#fff;}.cls-6{fill:#298ee9;}.cls-7{fill:#e8c58b;}.cls-8{fill:#cfcfcf;mix-blend-mode:multiply;}.cls-9{fill:#e1443d;}</style></defs><title>icon__submit-ticket--x</title><g class="cls-1"><g id="Layer_2" data-name="Layer 2"><path class="cls-2" d="M62.93,67.41H18.07a1,1,0,1,1,0-2H62.93a1,1,0,1,1,0,2Z"/><polygon class="cls-3" points="19.5 63.91 19.5 37.54 26.29 25.91 54.71 25.91 61.5 37.54 61.5 63.91 19.5 63.91"/><path class="cls-4" d="M54.43,26.41,61,37.68V63.41H20V37.68l6.57-11.27H54.43m.57-1H26l-7,12v27H62v-27l-7-12Z"/><polygon class="cls-4" points="53 29.41 28 29.41 27 32.41 54 32.41 53 29.41"/><rect class="cls-5" x="29.5" y="8.91" width="22" height="22"/><path class="cls-4" d="M51,9.41v21H30v-21H51m1-1H29v23H52v-23Z"/><circle class="cls-5" cx="40.5" cy="18.91" r="6"/><path class="cls-6" d="M40.5,13.41a5.5,5.5,0,1,1-5.5,5.5,5.5,5.5,0,0,1,5.5-5.5m0-1a6.5,6.5,0,1,0,6.5,6.5,6.51,6.51,0,0,0-6.5-6.5Z"/><path class="cls-6" d="M39.89,22.57h1.22V21.35H39.89Zm.61-7.33a2.44,2.44,0,0,0-2.44,2.44h1.22a1.22,1.22,0,0,1,2.44,0c0,1.23-1.83,1.07-1.83,3.06h1.22c0-1.38,1.83-1.53,1.83-3.06A2.44,2.44,0,0,0,40.5,15.24Z"/><rect class="cls-7" x="20" y="37.71" width="41" height="25.69"/><path class="cls-4" d="M52,8.41v17h3l7,12v27H19v-27l7-12h3v-17H52m1-1H28v17H25.43l-.29.49-7,12-.14.23V65.41H63V37.13l-.14-.23-7-12-.29-.49H53v-17Z"/><rect class="cls-8" x="30" y="29.41" width="21" height="1"/><path class="cls-9" d="M44.77,57.57a.48.48,0,0,1-.36-.16l-3.84-4-3.83,4a.52.52,0,0,1-.36.16H31.15a.51.51,0,0,1-.47-.32.49.49,0,0,1,.12-.54l6.15-6-6-5.84a.51.51,0,0,1-.11-.55.49.49,0,0,1,.46-.31h5.17a.48.48,0,0,1,.36.16l3.73,3.93,3.73-3.93a.52.52,0,0,1,.36-.16h5.17a.5.5,0,0,1,.47.31.51.51,0,0,1-.12.55l-6,5.84,6.15,6a.49.49,0,0,1,.11.54.5.5,0,0,1-.46.32Z"/><path class="cls-4" d="M49.84,44.55l-6.36,6.21L50,57.07H44.77l-4.2-4.39-4.19,4.39H31.15l6.52-6.31-6.36-6.21h5.17l4.09,4.32,4.09-4.32h5.18m0-1H44.66a1,1,0,0,0-.72.31l-3.37,3.55-3.36-3.55a1,1,0,0,0-.73-.31H31.31a1,1,0,0,0-.7,1.72l5.62,5.48-5.78,5.6a1,1,0,0,0,.7,1.72h5.23a1,1,0,0,0,.72-.31l3.47-3.63,3.48,3.63a1,1,0,0,0,.72.31H50a1,1,0,0,0,.7-1.72l-5.78-5.6,5.61-5.48a1,1,0,0,0,.23-1.1,1,1,0,0,0-.92-.62Z"/></g></g></svg>