<svg xmlns="http://www.w3.org/2000/svg" viewBox="0 0 80 80"><defs><style>.cls-1{isolation:isolate;}.cls-2{fill:#eaeaea;}.cls-3{fill:#ededed;}.cls-4{fill:#464646;}.cls-5{fill:#ffc957;}.cls-6{fill:none;}.cls-7{fill:#fff;}.cls-8{fill:#298ee9;}.cls-9{fill:#cfcfcf;mix-blend-mode:multiply;}</style></defs><title>icon__knowledge-base</title><g class="cls-1"><g id="Layer_2" data-name="Layer 2"><path class="cls-2" d="M58.14,63.41H21.86a1,1,0,0,1,0-2H58.14a1,1,0,0,1,0,2Z"/><rect class="cls-3" x="23.5" y="18.91" width="33" height="41"/><path class="cls-4" d="M56,19.41v40H24v-40H56m1-1H23v42H57v-42Z"/><polygon class="cls-5" points="30 64.8 27.5 66.47 27.5 59.91 32.5 59.91 32.5 66.47 30 64.8"/><path class="cls-4" d="M32,60.41v5.13l-1.45-1L30,64.2l-.55.37-1.45,1V60.41h4m1-1H27v8l3-2,3,2v-8Z"/><path class="cls-4" d="M57,18.41v42H33v7l-3-2-3,2v-7H23v-42H57m1-1H22v44h4v7.86l1.55-1L30,66.61l2.45,1.63,1.55,1V61.41H58v-44Z"/><path class="cls-6" d="M28,28H52V52H28Z"/><circle class="cls-7" cx="40" cy="38.41" r="9.5"/><path class="cls-8" d="M40,29.41a9,9,0,1,1-9,9,9,9,0,0,1,9-9m0-1a10,10,0,1,0,10,10,10,10,0,0,0-10-10Z"/><path class="cls-8" d="M39,44.41h2v-2H39Zm1-12a4,4,0,0,0-4,4h2a2,2,0,0,1,4,0c0,2-3,1.75-3,5h2c0-2.25,3-2.5,3-5A4,4,0,0,0,40,32.41Z"/><rect class="cls-9" x="28" y="60.41" width="4" height="1"/></g></g></svg>