<svg xmlns="http://www.w3.org/2000/svg" viewBox="0 0 80 80"><defs><style>.cls-1{fill:#fff;}.cls-2{fill:#464646;}.cls-12,.cls-3,.cls-4,.cls-5,.cls-7{fill:none;}.cls-12,.cls-3{stroke:#464646;}.cls-3,.cls-4,.cls-5,.cls-7{stroke-linecap:round;}.cls-12,.cls-3,.cls-4,.cls-5,.cls-6,.cls-7,.cls-8{stroke-miterlimit:10;}.cls-4{stroke:#ededed;}.cls-5{stroke:#298ee9;}.cls-5,.cls-7{fill-rule:evenodd;}.cls-6{fill:#298ee9;}.cls-6,.cls-8{stroke:#fff;stroke-width:2px;}.cls-7{stroke:#e1443d;}.cls-11,.cls-8{fill:#e1443d;}.cls-9{fill:#ffc957;}.cls-10{fill:#eaeaea;}</style></defs><title>icon__webby</title><g id="Layer_2" data-name="Layer 2"><rect class="cls-1" x="10" y="19.41" width="60" height="43"/><path class="cls-2" d="M69,20.41v41H11v-41H69m2-2H9v45H71v-45Z"/><line class="cls-3" x1="16.5" y1="24.91" x2="32.5" y2="24.91"/><line class="cls-4" x1="15" y1="29.91" x2="65" y2="29.91"/><line class="cls-4" x1="15" y1="50.91" x2="65" y2="50.91"/><polyline class="cls-5" points="17.5 46.91 33.5 45.91 49.5 39.91 61.5 33.91"/><circle class="cls-6" cx="33.5" cy="45.91" r="2"/><circle class="cls-6" cx="49.5" cy="39.91" r="2"/><circle class="cls-6" cx="61.5" cy="33.91" r="2"/><circle class="cls-6" cx="17.5" cy="46.91" r="2"/><polyline class="cls-7" points="17.5 39.91 33.5 37.91 49.5 46.91 61.5 46.91"/><circle class="cls-8" cx="17.5" cy="39.91" r="2"/><circle class="cls-8" cx="33.5" cy="37.91" r="2"/><circle class="cls-8" cx="49.5" cy="46.91" r="2"/><rect class="cls-9" x="55.5" y="41.91" width="14" height="14"/><path class="cls-2" d="M69,42.41v13H56v-13H69m1-1H55v15H70v-15Z"/><circle class="cls-1" cx="62.5" cy="48.91" r="4"/><path class="cls-2" d="M62.5,45.41a3.5,3.5,0,1,1-3.5,3.5,3.5,3.5,0,0,1,3.5-3.5m0-1a4.5,4.5,0,1,0,4.5,4.5,4.49,4.49,0,0,0-4.5-4.5Z"/><circle class="cls-2" cx="60.5" cy="48.91" r="0.5"/><circle class="cls-2" cx="64.5" cy="48.91" r="0.5"/><rect class="cls-10" x="11" y="56.41" width="58" height="5"/><rect class="cls-11" x="11" y="56.41" width="16" height="5"/><line class="cls-12" x1="11" y1="55.91" x2="55" y2="55.91"/><rect class="cls-10" x="8" y="63.41" width="64" height="2" rx="1" ry="1"/></g></svg>