<svg xmlns="http://www.w3.org/2000/svg" viewBox="0 0 80 80"><defs><style>.cls-1{fill:#fff;}.cls-2{fill:#464646;}.cls-3{fill:#9b9b9b;}.cls-4{fill:#e1443d;}.cls-5{fill:#298ee9;}</style></defs><title>icon__call</title><g id="Layer_2" data-name="Layer 2"><path class="cls-1" d="M42.74,52a1.36,1.36,0,0,1-.88-.31c-.84-.69-.37-1.91.4-3.93a19.6,19.6,0,0,0,.67-1.92,13.44,13.44,0,0,1-3.43-8.91c0-8.28,7.85-15,17.5-15s17.5,6.72,17.5,15-7.85,15-17.5,15a19.62,19.62,0,0,1-9.42-2.36,13.12,13.12,0,0,0-1.86,1.06c-1.35.85-2.22,1.37-3,1.37Z"/><path class="cls-2" d="M57,22.91c9.11,0,16.5,6.26,16.5,14s-7.39,14-16.5,14a18.6,18.6,0,0,1-9.12-2.33.36.36,0,0,0-.21,0c-1.05,0-3.9,2.45-4.93,2.45a.36.36,0,0,1-.24-.07c-.56-.47,1.87-5,1.39-5.5a12.64,12.64,0,0,1-3.39-8.5c0-7.74,7.39-14,16.5-14m0-2c-10.2,0-18.5,7.17-18.5,16a14.39,14.39,0,0,0,3.32,9.15c-.14.41-.35.95-.49,1.33-.84,2.18-1.5,3.9-.11,5a2.35,2.35,0,0,0,1.52.54c1,0,2-.58,3.51-1.52.37-.24.91-.58,1.3-.79A20.79,20.79,0,0,0,57,52.91c10.2,0,18.5-7.18,18.5-16s-8.3-16-18.5-16Z"/><path class="cls-3" d="M33.62,65.53c-3.06,0-6.06-2-8.87-4.11C17.93,56.37,9.32,43.27,7.38,35c-1-4.2-1.72-8.55,1-11.59l6.58-4.32a1,1,0,0,1,.55-.17,1,1,0,0,1,.84.46l5.49,8.35A3,3,0,0,1,22.25,30,3.06,3.06,0,0,1,21,31.85l-5,3.29a1,1,0,0,0-.45.78C15.15,41.36,22,51.79,27.13,53.63a1,1,0,0,0,.34.06,1,1,0,0,0,.55-.16l4.18-2.75a4,4,0,0,1,5.54,1.15l4.94,7.52a1,1,0,0,1,.14.76,1,1,0,0,1-.43.63l-6.58,4.32A6.59,6.59,0,0,1,33.62,65.53Z"/><path class="cls-2" d="M15.49,19.88h0L21,28.24A2,2,0,0,1,20.41,31l-5,3.3a2,2,0,0,0-.9,1.54c-.36,5.88,6.76,16.73,12.3,18.73a2,2,0,0,0,.68.11,2.07,2.07,0,0,0,1.1-.32l4.18-2.75a3,3,0,0,1,4.15.86L41.84,60l-6.47,4.25a5.48,5.48,0,0,1-1.75.28c-2.75,0-5.6-1.94-8.28-3.92-6.54-4.84-15.12-17.9-17-25.87C7.24,30,7,26.54,9,24.13l6.47-4.25m0-2a2,2,0,0,0-1.1.33L7.7,22.61C4.6,26,5.35,30.73,6.4,35.19c2,8.5,10.78,21.87,17.75,27,3,2.18,6.12,4.31,9.47,4.31a7.92,7.92,0,0,0,2.63-.46l6.69-4.39a2,2,0,0,0,.57-2.77l-4.94-7.53a5,5,0,0,0-4.18-2.25,4.93,4.93,0,0,0-2.74.82l-4.18,2.74C22.77,51,16.18,41,16.49,36l5-3.3a4,4,0,0,0,1.15-5.54l-5.49-8.35a2,2,0,0,0-1.67-.91Z"/><path class="cls-4" d="M46.92,35.87l1.77-.06.18,5.8-1.78.06Zm3.23-2.59,1.66-.05.26,8.29-1.66,0Zm3.46,4.63,1.66,0,.11,3.55-1.66.05Z"/><path class="cls-5" d="M66.05,35.25l1.16,1.21-2.58,2.48-2-2.12-3.92,3.76.72.74,3.17-3,2,2.11,3.33-3.18,1.16,1.21.07-3.11Z"/></g></svg>