<svg id="Layer_1" data-name="Layer 1" xmlns="http://www.w3.org/2000/svg" viewBox="0 0 80 80"><defs><style>.cls-1{fill:#e8c58b;}.cls-2{fill:#464646;}.cls-3{fill:#eaeaea;}.cls-4{fill:#fff;}.cls-5{fill:#298ee9;}.cls-6{fill:#e1443d;}.cls-7{fill:gray;}.cls-8{fill:#d1b27f;}.cls-9{fill:#e5cca8;}.cls-10{fill:#ffc957;}</style></defs><title>illustration__managed-seo</title><rect class="cls-1" x="19" y="49" width="42" height="28"/><path class="cls-2" d="M59,51V75H21V51H59m2-2H19V77H61V49Z"/><path class="cls-3" d="M61,79H19a1,1,0,0,1,0-2H61a1,1,0,0,1,0,2Z"/><rect class="cls-4" x="54" y="35" width="19" height="11.08" rx="5.54" ry="5.54" transform="translate(72.13 115.38) rotate(-129.14)"/><path class="cls-2" d="M67.55,45.52a2.47,2.47,0,0,1-3.46-.36l-2-2.46-1.17.95,2,2.46a4,4,0,1,0,6.14-5l-2-2.45-1.17,1,2,2.45A2.46,2.46,0,0,1,67.55,45.52Zm-1.44-3-4-4.91-1.23,1,4,4.91ZM57.93,40l2,2.46,1.17-1L59.1,39a2.46,2.46,0,0,1,3.81-3.1l2,2.46,1.17-1-2-2.46a4,4,0,1,0-6.14,5Z"/><path class="cls-5" d="M54.62,25.56l2,1.68L53,31.49l-3.49-2.93L44.12,35l1.23,1,4.4-5.23,3.48,2.93,4.62-5.48,2,1.68-.42-4.81Z"/><path class="cls-6" d="M9.84,45.22l1.45-2.13,7,4.72L16.8,49.93Zm-.28-6,1.35-2L20.84,44l-1.35,2Zm8.37-.12,1.35-2L23.53,40l-1.34,2Z"/><path class="cls-2" d="M33.58,20.34l5.21,13L28,37.66l-5.21-13,10.77-4.32m1.11-2.6L20.21,23.55l6.7,16.71,14.48-5.81-6.7-16.71Z"/><path class="cls-2" d="M25.06,26.52a.5.5,0,0,1-.18-1l4.64-1.86a.5.5,0,1,1,.37.93l-4.64,1.86A.58.58,0,0,1,25.06,26.52Z"/><path class="cls-7" d="M26.18,29.31a.51.51,0,0,1-.47-.31.51.51,0,0,1,.28-.65l6.5-2.61a.5.5,0,1,1,.37.93l-6.49,2.6A.46.46,0,0,1,26.18,29.31Z"/><path class="cls-7" d="M27.29,32.09a.51.51,0,0,1-.46-.31.5.5,0,0,1,.28-.65l6.5-2.6a.5.5,0,1,1,.37.92l-6.5,2.61A.58.58,0,0,1,27.29,32.09Z"/><rect class="cls-8" x="21" y="61" width="38" height="2"/><polygon class="cls-9" points="19 49 14 61 66 61 61 49 19 49"/><path class="cls-2" d="M59.67,51,63,59H17l3.33-8H59.67M61,49H19L14,61H66L61,49Z"/><rect class="cls-2" x="24" y="72" width="7" height="1"/><g id="Outline"><path class="cls-2" d="M17.25,29.3l-.3.09-.14-.07a2.53,2.53,0,0,0,.1-1.78,2.57,2.57,0,1,0-1.69,3.22,2.55,2.55,0,0,0,1.41-1.09l.14.07.09.3,2.48,1.3.38-.74ZM15,30a1.78,1.78,0,1,1,1.17-2.23A1.78,1.78,0,0,1,15,30Z"/></g><path class="cls-2" d="M46.32,13.92a5.13,5.13,0,0,0-5.72,4.46l-.48,4a1.69,1.69,0,0,0,1.48,1.9l1.7.21.56-4.52-2.26-.28.13-1.13a4,4,0,1,1,7.92,1l-.14,1.13-2.26-.28-.56,4.52,2.26.28-.07.56-4-.48-.14,1.13,3.39.42a1.7,1.7,0,0,0,1.9-1.49l.7-5.66A5.12,5.12,0,0,0,46.32,13.92Z"/><path class="cls-10" d="M76.5,50.5h-5a1,1,0,0,1,0-2h5a1,1,0,0,1,0,2Z"/><path class="cls-10" d="M8.5,51.5h-5a1,1,0,0,1,0-2h5a1,1,0,0,1,0,2Z"/><path class="cls-10" d="M40,13a1,1,0,0,1-1-1V7a1,1,0,0,1,2,0v5A1,1,0,0,1,40,13Z"/><path class="cls-10" d="M17.27,23.27a1,1,0,0,1-.71-.3L13,19.44A1,1,0,1,1,14.44,18L18,21.56a1,1,0,0,1-.7,1.71Z"/><path class="cls-10" d="M61.73,23.27a1,1,0,0,1-.7-1.71L64.56,18A1,1,0,1,1,66,19.44L62.44,23A1,1,0,0,1,61.73,23.27Z"/></svg>