<svg xmlns="http://www.w3.org/2000/svg" viewBox="0 0 203 203"><defs><style>.cls-1{fill:none;stroke:#fff;stroke-miterlimit:10;stroke-width:3px;}.cls-2{fill:#fff;}</style></defs><title>logo__mission-control</title><g id="Layer_2" data-name="Layer 2"><g id="Layer_1-2" data-name="Layer 1"><circle class="cls-1" cx="101.5" cy="101.5" r="100"/><path class="cls-2" d="M86,155c1,44,66,46,12,46C50,201,1,163,2,91c.33-24,7,26,42,26,52.61,0,119.5-94.5,128-86C176,35,85.22,120.88,86,155Z"/><path class="cls-2" d="M178,56a4,4,0,0,1-2.23-.68l-8-5.35-.38.37a4,4,0,0,1-5.65,0L151,39.59a4,4,0,0,1,0-5.65l.39-.39-4.83-7.42a4,4,0,0,1,.52-5l8.78-8.78a4,4,0,0,1,2.82-1.17l.41,0a39.93,39.93,0,0,0,4.19.17c3.71,0,8.45-.27,14.1-.79,1.59-.15,4.58-1.81,7.22-3.28,3.63-2,7.06-3.93,9.74-3.93a4.12,4.12,0,0,1,3.05,1.18c2.58,2.57-.08,7.22-3.16,12.59-1.54,2.69-3.29,5.73-3.54,7.33a60.74,60.74,0,0,0,0,18.19,4,4,0,0,1-1.12,3.45l-8.73,8.73A4,4,0,0,1,178,56Z"/><path d="M194.31,5.36A2.22,2.22,0,0,1,196,6c2.55,2.55-6.52,13.45-7.26,18.2a63.29,63.29,0,0,0,0,18.81,2,2,0,0,1-.56,1.73l-8.73,8.72a2,2,0,0,1-2.52.25l-8-5.35a2,2,0,0,0-1.11-.34,2,2,0,0,0-1.42.58l-.37.38a2,2,0,0,1-2.83,0L152.38,38.18a2,2,0,0,1,0-2.83l.39-.39a2,2,0,0,0,.26-2.5L148.21,25a2,2,0,0,1,.26-2.51l8.77-8.77a2,2,0,0,1,1.41-.59h.2c.8.08,2.19.18,4.4.18,3,0,7.59-.18,14.28-.8,4.2-.39,12.64-7.2,16.78-7.2m0-4c-3.19,0-6.85,2-10.72,4.19-2.09,1.16-5.26,2.92-6.43,3-5.58.52-10.26.78-13.91.78a39.38,39.38,0,0,1-4-.16c-.21,0-.41,0-.62,0a5.91,5.91,0,0,0-4.23,1.76l-8.78,8.77a6,6,0,0,0-.79,7.52l4,6.14a6,6,0,0,0,.7,7.65L160.3,51.76a6,6,0,0,0,7.61.72L174.63,57A6,6,0,0,0,178,58a5.93,5.93,0,0,0,4.24-1.76l8.73-8.73a6,6,0,0,0,1.68-5.18,58.8,58.8,0,0,1,0-17.57c.19-1.23,2-4.35,3.29-6.63,3.35-5.84,6.51-11.35,2.85-15a6.14,6.14,0,0,0-4.47-1.76Z"/><circle class="cls-2" cx="174" cy="114" r="2"/><circle class="cls-2" cx="84" cy="65" r="3"/><circle cx="134" cy="160" r="1"/><circle class="cls-2" cx="127" cy="162" r="1"/><circle class="cls-2" cx="30" cy="56" r="1"/><circle class="cls-2" cx="108" cy="32" r="2"/><circle class="cls-2" cx="136" cy="122" r="2"/></g></g></svg>